<svg height="512pt" viewBox="0 0 512 512" width="512pt" xmlns="http://www.w3.org/2000/svg"><path d="m418.105469 0h-275.019531c-20.785157 0-37.695313 16.910156-37.695313 37.695312v384.273438h225.824219v52.335938c0 20.785156 16.910156 37.695312 37.695312 37.695312 20.789063 0 37.699219-16.910156 37.699219-37.695312v-436.609376c0-13.945312 4.242187-26.914062 11.496094-37.695312zm-47.140625 361.03125h-229.929688v-30h229.929688zm0-67.523438h-229.929688v-30h229.929688zm0-67.523437h-229.929688v-30h229.929688zm0-67.523437h-229.929688v-29.996094h229.929688zm0-67.523438h-229.929688v-29.996094h229.929688zm0 0"/><path d="m474.304688 0c-20.785157 0-37.695313 16.910156-37.695313 37.695312v22.335938h75.390625v-22.335938c0-20.785156-16.910156-37.695312-37.695312-37.695312zm0 0"/><path d="m301.21875 451.96875h-301.21875v22.335938c0 20.785156 16.910156 37.695312 37.695312 37.695312h275.015626c-7.253907-10.78125-11.492188-23.753906-11.492188-37.695312zm0 0"/></svg>